<svg id="Calque_1" data-name="Calque 1" xmlns="http://www.w3.org/2000/svg" viewBox="0 0 199.17 230.01"><defs><style>.cls-1{font-size:46px;font-family:Righteous-Regular, Righteous;}.cls-1,.cls-3,.cls-5{fill:#0094b4;}.cls-2{letter-spacing:-0.01em;}.cls-4{fill:#fff;}.cls-5{stroke:#0094b4;stroke-miterlimit:10;}</style></defs><text class="cls-1" transform="translate(21.54 218.19)">AC<tspan class="cls-2" x="60.44" y="0">T</tspan><tspan x="86.68" y="0">MH</tspan></text><ellipse class="cls-3" cx="62.72" cy="99.98" rx="6.5" ry="9.5"/><circle class="cls-4" cx="62.22" cy="97.48" r="2"/><path class="cls-3" d="M1447.26,522.29c-.52-.3-1.07-.56-1.61-.82-6.84-3.38-13.68-6.74-20.49-10.16a2.46,2.46,0,0,1-1.31-1.43,29.64,29.64,0,0,1-.06-4.15h2.13c4.78,0,9.56,0,14.34,0,2.36,0,3.8-1.86,3-3.8a3,3,0,0,0-3.21-1.88c-4.78,0-9.56,0-14.34,0-.64,0-1.27-.06-2-.1a23.6,23.6,0,0,0,0-2.95,2.32,2.32,0,0,1,1.7-2.74c1.84-.77,3.6-1.74,5.39-2.62,5.37-2.65,10.74-5.29,16.1-8,2.27-1.13,2.7-3.58.92-5-1.24-1-2.47-.61-3.74,0q-9.18,4.57-18.38,9.1c-.57.29-1.17.52-2,.87V422.26a5.1,5.1,0,0,1-6.84-1.8,12.48,12.48,0,0,1-.91-1.92,4.53,4.53,0,0,1-4.48,3c-3.66,0-5.24-3.23-4.73-6l-.23,0a4.54,4.54,0,0,1-4.36,2.74c-3.76,0-5.32-3.42-4.68-6.26a1,1,0,0,1-.17-.1,4.63,4.63,0,0,1-3.44,1.38c-4.25,0-5.69-4.35-4.34-7.31l0,0c-2.36,2.37-4.73,4.74-7.08,7.11a2.11,2.11,0,0,1-2.78.55q-30.36-13.11-60.75,0a2,2,0,0,1-2.63-.5q-12.52-12.64-25.14-25.19c-3.34-3.34-6.69-6.66-10-10-1.15-1.17-2.42-1.84-4.06-1.16s-2.22,2.09-2.15,3.81c0,.55,0,1.09,0,1.64V488.8l-12.21-6c-2.93-1.45-5.84-2.93-8.79-4.32a2.75,2.75,0,0,0-3.87,1.21,2.8,2.8,0,0,0,1.37,3.82c.53.31,1.08.55,1.62.82,6.83,3.38,13.66,6.78,20.51,10.11a2,2,0,0,1,1.39,2.21c-.1,1.06,0,2.14,0,3.41h-2.14c-4.78,0-9.56,0-14.34,0-2,0-3.25,1.21-3.21,2.93s1.27,2.72,3.2,2.74c3.39,0,6.78,0,10.17,0H1275a13.68,13.68,0,0,0,0,2.15c.36,2.11-.54,3.16-2.47,4.07-6.85,3.21-13.6,6.62-20.35,10.05a4.4,4.4,0,0,0-2.16,2.18,3.51,3.51,0,0,0,.79,2.73c.92,1.12,2.24.91,3.49.29q9.35-4.63,18.71-9.23c.58-.28,1.17-.53,2-.92v23.84h5.65v-2.48c0-18.64,0-37.29,0-55.93a85,85,0,0,1,.74-11c5.45-40.18,46.51-67.15,85.69-56.35a68.71,68.71,0,0,1,51,66.64c.06,19,0,38,0,57V541h5.78v-23.9l10.33,5.09c3.47,1.71,6.93,3.47,10.41,5.15a2.86,2.86,0,0,0,4.05-1.18A2.8,2.8,0,0,0,1447.26,522.29Z" transform="translate(-1249.78 -376.52)"/><path class="cls-3" d="M1344.67,425c2-.16,4-.24,6-.21,1,0,2,.05,3,.12l3,.32c1,.12,2,.18,3,.36l2.93.59a48.72,48.72,0,0,1,5.78,1.53l1.43.43,1.4.54,2.79,1.08a25.63,25.63,0,0,1,2.72,1.25l2.69,1.32c1.72,1,3.44,2,5.12,3.12l2.42,1.77a24.51,24.51,0,0,1,2.36,1.84,61.89,61.89,0,0,1-58.51,106.26A61.8,61.8,0,0,1,1287.22,491a62.21,62.21,0,0,1,.31-12.28,61,61,0,0,1,2.76-11.95,62.06,62.06,0,0,1,12.25-20.92A63,63,0,0,1,1344.67,425Zm0,.4a60.72,60.72,0,0,0-11.65,2.25,58.61,58.61,0,0,0-10.92,4.53,59.74,59.74,0,0,0-18,15,60.72,60.72,0,0,0-13,43.43,59.76,59.76,0,0,0,20.6,40,59.23,59.23,0,0,0,94.73-26.72,59.75,59.75,0,0,0,2.76-23.12,60.72,60.72,0,0,0-20.61-41.07,58.57,58.57,0,0,0-20.51-11.61,50.19,50.19,0,0,0-5.75-1.52l-2.91-.58c-1-.19-2-.24-3-.36l-3-.32c-1-.07-2-.1-3-.12C1348.66,425.18,1346.67,425.25,1344.7,425.41Z" transform="translate(-1249.78 -376.52)"/><path class="cls-3" d="M1348.4,506.76a28.44,28.44,0,0,1-4.14-1.87c-3.17-2.1-3.15-5.64-.06-7.83a11.57,11.57,0,0,1,12.23.05c3.1,2.24,3.08,5.69-.16,7.79a29.06,29.06,0,0,1-4,1.81,6.52,6.52,0,0,0,6.35,4.83,7.41,7.41,0,0,0,7.14-5.59c.29-1.08-.27-3.05,1.8-2.6.41.09.76,2.29.5,3.35a9.62,9.62,0,0,1-16,4.6c-.58-.56-1.11-1.17-1.76-1.85-2.94,3.63-6.53,5.4-11.19,4.16a9.55,9.55,0,0,1-6.91-8.27c0-.69.64-1.42,1-2.14.48.61,1.23,1.15,1.39,1.83.91,3.82,3.24,6.16,6.64,6.48A7,7,0,0,0,1348.4,506.76Z" transform="translate(-1249.78 -376.52)"/><path class="cls-5" d="M1387.58,482l.94,3.65h.06l-.58-3.84,2.61-.83,0-.06a8.46,8.46,0,0,0-2.75.38.45.45,0,0,0,0-.13c-.32-1.25-.64-2.49-1-3.74,0-.13,0-.16.12-.2l2-.68.22-.09a.23.23,0,0,0-.15,0,7.63,7.63,0,0,0-2.18.28c-.17,0-.22,0-.27-.15-.39-1.06-.79-2.11-1.2-3.16a.22.22,0,0,1,.11-.32l1.94-1.28a2.07,2.07,0,0,0,.24-.17,7.86,7.86,0,0,0-2.58,1l0-.06a32.62,32.62,0,0,0-2.07-3.87c-.07-.12,0-.17.06-.24l1.22-1,.61-.51s-.06,0-.07,0l-.16.05a7.6,7.6,0,0,0-1.86.95c-.15.11-.21.07-.31-.07-.7-.93-1.42-1.86-2.13-2.79l-.08-.12,2.14-1.71-.05-.08c-.43.2-.87.38-1.29.6s-.81.49-1.19.73l-2.34-2.22,0,0,1.93,2.51-1.9,1.77,0,.05a15.14,15.14,0,0,0,2.17-1.32l.12.17,1.75,2.75c.24.38.22.37-.12.67-.51.46-1,.94-1.51,1.4l0,.06a14.22,14.22,0,0,0,2.08-1.26s.06.06.07.09l2,3.82c.06.11,0,.16-.07.22l-1,.77-.54.47,0,.07,1.89-.91,1.39,3.26-.85.33c-.26.1-.52.22-.79.34s-.49.24-.74.36l0,.08,2.63-.56,1.25,3.9c-.43.17-.85.32-1.26.5s-.82.37-1.22.56l0,.09Z" transform="translate(-1249.78 -376.52)"/></svg>