<svg width="30" height="30" viewBox="0 0 30 30" fill="none" xmlns="http://www.w3.org/2000/svg">
<path class="img-controls" d="M15 10L13.3375 10.1125C12.2625 8.8375 9.25002 5.625 6.25002 5.625C6.25002 5.625 3.78752 9.325 6.20002 14.2625C5.51252 15.3 5.08752 15.8375 5.00002 17.075L2.58752 17.4375L2.85002 18.6625L5.05002 18.3375L5.22502 19.225L3.26252 20.4L3.85002 21.5125L5.66252 20.4C7.10002 23.45 10.7375 25 15 25C19.2625 25 22.9 23.45 24.3375 20.4L26.15 21.5125L26.7375 20.4L24.775 19.225L24.95 18.3375L27.15 18.6625L27.4125 17.4375L25 17.075C24.9125 15.8375 24.4875 15.3 23.8 14.2625C26.2125 9.325 23.75 5.625 23.75 5.625C20.75 5.625 17.7375 8.8375 16.6625 10.1125L15 10ZM11.25 13.75C11.5815 13.75 11.8995 13.8817 12.1339 14.1161C12.3683 14.3505 12.5 14.6685 12.5 15C12.5 15.3315 12.3683 15.6495 12.1339 15.8839C11.8995 16.1183 11.5815 16.25 11.25 16.25C10.9185 16.25 10.6006 16.1183 10.3661 15.8839C10.1317 15.6495 10 15.3315 10 15C10 14.6685 10.1317 14.3505 10.3661 14.1161C10.6006 13.8817 10.9185 13.75 11.25 13.75ZM18.75 13.75C19.0815 13.75 19.3995 13.8817 19.6339 14.1161C19.8683 14.3505 20 14.6685 20 15C20 15.3315 19.8683 15.6495 19.6339 15.8839C19.3995 16.1183 19.0815 16.25 18.75 16.25C18.4185 16.25 18.1006 16.1183 17.8661 15.8839C17.6317 15.6495 17.5 15.3315 17.5 15C17.5 14.6685 17.6317 14.3505 17.8661 14.1161C18.1006 13.8817 18.4185 13.75 18.75 13.75ZM13.75 17.5H16.25L15.375 19.2375C15.625 20.0375 16.325 20.625 17.1875 20.625C17.6848 20.625 18.1617 20.4275 18.5133 20.0758C18.865 19.7242 19.0625 19.2473 19.0625 18.75H19.6875C19.6875 19.413 19.4241 20.0489 18.9553 20.5178C18.4864 20.9866 17.8506 21.25 17.1875 21.25C16.25 21.25 15.4375 20.7375 15 20C14.5625 20.7375 13.75 21.25 12.8125 21.25C12.1495 21.25 11.5136 20.9866 11.0448 20.5178C10.5759 20.0489 10.3125 19.413 10.3125 18.75H10.9375C10.9375 19.2473 11.1351 19.7242 11.4867 20.0758C11.8383 20.4275 12.3152 20.625 12.8125 20.625C13.675 20.625 14.375 20.0375 14.625 19.2375L13.75 17.5Z" fill="black"/>
</svg>
